<svg id="_4" data-name="4" xmlns="http://www.w3.org/2000/svg" width="307.782" height="56.344" viewBox="0 0 307.782 56.344">
  <metadata><?xpacket begin="﻿" id="W5M0MpCehiHzreSzNTczkc9d"?>
<x:xmpmeta xmlns:x="adobe:ns:meta/" x:xmptk="Adobe XMP Core 5.6-c138 79.159824, 2016/09/14-01:09:01        ">
   <rdf:RDF xmlns:rdf="http://www.w3.org/1999/02/22-rdf-syntax-ns#">
      <rdf:Description rdf:about=""/>
   </rdf:RDF>
</x:xmpmeta>
                                                                                                    
                                                                                                    
                                                                                                    
                                                                                                    
                                                                                                    
                                                                                                    
                                                                                                    
                                                                                                    
                                                                                                    
                                                                                                    
                                                                                                    
                                                                                                    
                                                                                                    
                                                                                                    
                                                                                                    
                                                                                                    
                                                                                                    
                                                                                                    
                                                                                                    
                                                                                                    
                           
<?xpacket end="w"?></metadata>
<defs>
    <style>
      .cls-1 {
        fill: #fff;
      }

      .cls-1, .cls-3 {
        fill-rule: evenodd;
      }

      .cls-2 {
        fill: #f85a14;
      }

      .cls-3 {
        fill: #fff;
      }
    </style>
  </defs>
  <path id="Consults" class="cls-1" d="M87.963,54.777a16.154,16.154,0,0,0,6.029-6.838A22.933,22.933,0,0,0,96.1,37.867V37.129a22.819,22.819,0,0,0-2.109-10.055,16.259,16.259,0,0,0-6.047-6.838,17.324,17.324,0,0,0-9.422-2.479,17.1,17.1,0,0,0-9.352,2.5,16.374,16.374,0,0,0-6.047,6.855,22.733,22.733,0,0,0-2.109,10.02v0.738A22.931,22.931,0,0,0,63.125,47.94a16.112,16.112,0,0,0,6.047,6.838,17.416,17.416,0,0,0,9.422,2.461A17.26,17.26,0,0,0,87.963,54.777ZM73.689,48.818a9.324,9.324,0,0,1-2.883-4.43,20.847,20.847,0,0,1-.932-6.522V37.129a20.558,20.558,0,0,1,.932-6.469,9.5,9.5,0,0,1,2.865-4.43,7.305,7.305,0,0,1,4.852-1.617,7.414,7.414,0,0,1,4.922,1.617,9.627,9.627,0,0,1,2.883,4.43,20.21,20.21,0,0,1,.949,6.469v0.738a20.494,20.494,0,0,1-.949,6.522,9.567,9.567,0,0,1-2.865,4.43,7.339,7.339,0,0,1-4.869,1.6A7.479,7.479,0,0,1,73.689,48.818ZM119.727,56.5V51.086l-4.817-1.055V29.078a8.818,8.818,0,0,1,3.111-3.182,8.592,8.592,0,0,1,4.483-1.143,6.765,6.765,0,0,1,5.133,1.811q1.722,1.811,1.722,6.135V50.031L124.4,51.086V56.5h19.09V51.086l-5.273-1.055v-17.4q0-7.664-3.27-11.268t-9.14-3.6a12.589,12.589,0,0,0-6.416,1.635,13.8,13.8,0,0,0-4.729,4.588l-0.457-5.52H100.5V23.91l5.555,1.055V50.031l-5.274,1.055V56.5h18.95Zm55.089-2.531a10.632,10.632,0,0,0,3.727-8.367,9.255,9.255,0,0,0-3.2-7.348q-3.2-2.777-10.617-4.5a23.055,23.055,0,0,1-4.588-1.459,4.8,4.8,0,0,1-2.11-1.67,3.969,3.969,0,0,1,1.143-5.256,7.439,7.439,0,0,1,4.6-1.283,11.789,11.789,0,0,1,3.305.422,8.425,8.425,0,0,1,2.531,1.2l1.09,5.027H177l-0.211-9.668a20.843,20.843,0,0,0-5.713-2.373,29.861,29.861,0,0,0-7.681-.9,18.721,18.721,0,0,0-8,1.529,11.63,11.63,0,0,0-4.922,4.061,10.049,10.049,0,0,0-1.67,5.66,9.346,9.346,0,0,0,3.217,7.365q3.216,2.83,10.037,4.307,4.6,0.985,6.24,2.338A4.094,4.094,0,0,1,169.93,46.3a4.177,4.177,0,0,1-1.565,3.3Q166.8,50.946,163,50.945a15.89,15.89,0,0,1-3.568-.369,17.3,17.3,0,0,1-3.112-1.037l-1.336-5.484h-6.363l0.1,10.055a39.126,39.126,0,0,0,7.084,2.338,34.812,34.812,0,0,0,7.612.791Q171.09,57.238,174.816,53.969Zm31.518,1.74a12.51,12.51,0,0,0,4.553-4.377l0.6,5.168h12.34V51.086l-4.5-1.055V18.461h-13.64V23.91l4.781,1.055V45.848a8.409,8.409,0,0,1-3.217,3.252,9.824,9.824,0,0,1-4.9,1.143,5.773,5.773,0,0,1-4.834-1.986q-1.564-1.986-1.565-6.908V18.461H182.8V23.91l4.289,1.055V41.277q0,8.192,3.428,12.076t9.545,3.885A12.729,12.729,0,0,0,206.334,55.709ZM246.992,56.5V51.086l-5.308-1.055V1.656h-14.45V7.105l5.625,1.055V50.031l-5.308,1.055V56.5h19.441Zm22.131,0.352a28.184,28.184,0,0,0,3.533-.773l-0.914-6.223q-0.738.176-1.951,0.352a15.391,15.391,0,0,1-2.2.176,3.491,3.491,0,0,1-2.725-1.107,5.173,5.173,0,0,1-1-3.533V24.789h7.524V18.461h-7.524V9.215h-8.824v9.246h-5.555v6.328h5.555V45.742q0,5.977,2.707,8.7t7.559,2.725A24.263,24.263,0,0,0,269.123,56.852Zm34.963-2.883a10.631,10.631,0,0,0,3.726-8.367,9.252,9.252,0,0,0-3.2-7.348q-3.2-2.777-10.617-4.5a23.077,23.077,0,0,1-4.588-1.459,4.791,4.791,0,0,1-2.109-1.67,3.97,3.97,0,0,1,1.142-5.256,7.44,7.44,0,0,1,4.606-1.283,11.794,11.794,0,0,1,3.3.422,8.448,8.448,0,0,1,2.531,1.2l1.09,5.027h6.293l-0.211-9.668a20.856,20.856,0,0,0-5.713-2.373,29.869,29.869,0,0,0-7.682-.9,18.724,18.724,0,0,0-8,1.529,11.636,11.636,0,0,0-4.922,4.061,10.057,10.057,0,0,0-1.67,5.66,9.349,9.349,0,0,0,3.217,7.365q3.218,2.83,10.037,4.307,4.6,0.985,6.24,2.338A4.094,4.094,0,0,1,299.2,46.3a4.179,4.179,0,0,1-1.564,3.3q-1.565,1.336-5.362,1.336a15.9,15.9,0,0,1-3.568-.369,17.261,17.261,0,0,1-3.111-1.037l-1.336-5.484H277.9L278,54.109a39.126,39.126,0,0,0,7.084,2.338,34.8,34.8,0,0,0,7.611.791Q300.358,57.238,304.086,53.969Z" transform="translate(-0.031 -1.656)"/>
  <circle class="cls-2" cx="28.969" cy="28.344" r="28"/>
  <path id="c" class="cls-3" d="M32.222,52.9a14.964,14.964,0,0,0,6.24-5.691,21.48,21.48,0,0,0,2.834-8.5l-0.132-.264H30.926a9.423,9.423,0,0,1-2.988,5.383,8.7,8.7,0,0,1-5.845,1.912,8.752,8.752,0,0,1-5.164-1.626,10.647,10.647,0,0,1-3.626-4.9,22.214,22.214,0,0,1-1.318-8.24v-1.45a22.852,22.852,0,0,1,1.252-7.976,11.4,11.4,0,0,1,3.691-5.229,9.576,9.576,0,0,1,6-1.868,9.973,9.973,0,0,1,3.735.7A8.521,8.521,0,0,1,29.564,17l1.67,8.482h9.053V12.3A24.507,24.507,0,0,0,32.837,7.55,27.367,27.367,0,0,0,21.961,5.572a21.318,21.318,0,0,0-11.6,3.1,20.824,20.824,0,0,0-7.625,8.5,27.247,27.247,0,0,0-2.7,12.349v1.45A27.635,27.635,0,0,0,2.713,43.409a20.322,20.322,0,0,0,7.625,8.459,21.831,21.831,0,0,0,11.711,3.054A22.592,22.592,0,0,0,32.222,52.9Z" transform="translate(-0.031 -1.656)"/>
</svg>
